<svg width="26" height="24" viewBox="0 0 26 24" fill="none" xmlns="http://www.w3.org/2000/svg">
<g clip-path="url(#clip0_5013_150)">
<path fill-rule="evenodd" clip-rule="evenodd" d="M26 -61C26 -66.5228 21.5229 -71 16 -71H-1884C-1889.52 -71 -1894 -66.5228 -1894 -61V23.99C-1894 23.9955 -1894 24 -1893.99 24C-1893.98 24 -1893.98 23.9957 -1893.98 23.9903C-1893.45 10.6513 -1882.47 0 -1869 0H-1610.52C-1605.46 0 -1601.3 -3.8327 -1599.81 -8.67391C-1593.54 -29.1277 -1574.51 -44 -1552 -44H-525C-502.492 -44 -483.458 -29.1277 -477.188 -8.6739C-475.704 -3.8327 -471.544 0 -466.481 0H1C14.469 0 25.4502 10.6513 25.98 23.9903C25.9802 23.9957 25.9846 24 25.99 24C25.9955 24 26 23.9955 26 23.99V-61Z" fill="#7027E2"/>
</g>
<defs>
<clipPath id="clip0_5013_150">
<rect width="26" height="24" fill="white" transform="matrix(-1 0 0 1 26 0)"/>
</clipPath>
</defs>
</svg>
